# xmcd CD database file
#
# Track frame offsets:
#	150
#	16477
#	31525
#	49445
#	65816
#	80723
#	96573
#	112397
#	127903
#	139972
#	153698
#	176066
#	194833
#
# Disc length: 2896 seconds
#
# Revision: 0
# Processed by: cddbd v1.5.2PL0 Copyright (c) Steve Scherf et al.
# Submitted via: CDex 1.81
#
DISCID=cc0b4e0d
DTITLE=Francesca de Valence - Own Self
DYEAR=2015
DGENRE=Jazz
TTITLE0=Francesca de Valence - Own Self
TTITLE1=Francesca de Valence - Blind Spots
TTITLE2=Francesca de Valence - Obsession
TTITLE3=Francesca de Valence - It's Time To Change It Up
TTITLE4=Francesca de Valence - Relativity
TTITLE5=Francesca de Valence - All The Love
TTITLE6=Francesca de Valence - Yellow
TTITLE7=Francesca de Valence - Song for the Hidden Man
TTITLE8=Francesca de Valence - Short and Sweet
TTITLE9=Francesca de Valence - Shapes
TTITLE10=Francesca de Valence - Beautiful Night
TTITLE11=Francesca de Valence - Lions and Tigers and Bears
TTITLE12=Francesca de Valence - Roadside
EXTD=YEAR: 2015
EXTT0=
EXTT1=
EXTT2=
EXTT3=
EXTT4=
EXTT5=
EXTT6=
EXTT7=
EXTT8=
EXTT9=
EXTT10=
EXTT11=
EXTT12=
PLAYORDER=
